{"accessors" : [{"bufferView" : 0, "byteOffset" : 0, "componentType" : 5123, "count" : 600, "type" : "SCALAR", "max" : [497], "min" : [0]}, {"bufferView" : 1, "byteOffset" : 0, "componentType" : 5126, "count" : 498, "type" : "VEC3", "max" : [0.5, -0, 0.5], "min" : [-0.5, -0, -0.5], "name" : "POSITION"}, {"bufferView" : 1, "byteOffset" : 12, "componentType" : 5126, "count" : 498, "type" : "VEC2", "max" : [1, -0], "min" : [0, -1], "name" : "TEXCOORD_0"}, {"bufferView" : 1, "byteOffset" : 20, "componentType" : 5126, "count" : 498, "type" : "VEC3", "max" : [0, 1.0000044107437134, 0], "min" : [0, 1.0000044107437134, 0], "name" : "NORMAL"}, {"bufferView" : 0, "byteOffset" : 1200, "componentType" : 5123, "count" : 600, "type" : "SCALAR", "max" : [519], "min" : [0]}, {"bufferView" : 2, "byteOffset" : 0, "componentType" : 5126, "count" : 520, "type" : "VEC3", "max" : [7.6536688804626465, -2.0675859451293945, 24.34239959716797], "min" : [-6.967683792114258, -41.82405471801758, 9.721046447753906], "name" : "POSITION"}, {"bufferView" : 2, "byteOffset" : 12, "componentType" : 5126, "count" : 520, "type" : "VEC2", "max" : [0.65625, 0], "min" : [0.34375, -1], "name" : "TEXCOORD_0"}, {"bufferView" : 2, "byteOffset" : 20, "componentType" : 5126, "count" : 520, "type" : "VEC3", "max" : [0.9979137182235718, 1.0000044107437134, 0.9979137182235718], "min" : [-0.9979137182235718, -1.0000044107437134, -0.9979137182235718], "name" : "NORMAL"}, {"bufferView" : 0, "byteOffset" : 2400, "componentType" : 5123, "count" : 324, "type" : "SCALAR", "max" : [264], "min" : [0]}, {"bufferView" : 3, "byteOffset" : 0, "componentType" : 5126, "count" : 265, "type" : "VEC3", "max" : [20.060911178588867, -40.846561431884766, 25.55154037475586], "min" : [-20.060911178588867, -47.87266540527344, -11.788090705871582], "name" : "POSITION"}, {"bufferView" : 3, "byteOffset" : 12, "componentType" : 5126, "count" : 265, "type" : "VEC2", "max" : [0.875, 0], "min" : [0.125, -1], "name" : "TEXCOORD_0"}, {"bufferView" : 3, "byteOffset" : 20, "componentType" : 5126, "count" : 265, "type" : "VEC3", "max" : [0.9959208965301514, 0.9999036192893982, 0.9948511719703674], "min" : [-0.9959873557090759, -0.9999498128890991, -0.9594367742538452], "name" : "NORMAL"}, {"bufferView" : 0, "byteOffset" : 3048, "componentType" : 5123, "count" : 60, "type" : "SCALAR", "max" : [49], "min" : [0]}, {"bufferView" : 4, "byteOffset" : 0, "componentType" : 5126, "count" : 50, "type" : "VEC3", "max" : [12.505507469177246, -42.00362777709961, -6.517396926879883], "min" : [10.637042999267578, -45.198204040527344, -10.317694664001465], "name" : "POSITION"}, {"bufferView" : 4, "byteOffset" : 12, "componentType" : 5126, "count" : 50, "type" : "VEC2", "max" : [0.875, -0], "min" : [0.125, -1], "name" : "TEXCOORD_0"}, {"bufferView" : 4, "byteOffset" : 20, "componentType" : 5126, "count" : 50, "type" : "VEC3", "max" : [1.0000044107437134, 0.9577454924583435, 0.8124902248382568], "min" : [-1.0000044107437134, -0.8124902248382568, -0.8151772022247314], "name" : "NORMAL"}, {"bufferView" : 0, "byteOffset" : 3168, "componentType" : 5123, "count" : 63588, "type" : "SCALAR", "max" : [54495], "min" : [0]}, {"bufferView" : 5, "byteOffset" : 0, "componentType" : 5126, "count" : 54496, "type" : "VEC3", "max" : [28.485767364501953, 28.468626022338867, 20.020753860473633], "min" : [-28.45221519470215, -28.46861457824707, -14.404532432556152], "name" : "POSITION"}, {"bufferView" : 5, "byteOffset" : 12, "componentType" : 5126, "count" : 54496, "type" : "VEC2", "max" : [1, 0], "min" : [0, -1], "name" : "TEXCOORD_0"}, {"bufferView" : 5, "byteOffset" : 20, "componentType" : 5126, "count" : 54496, "type" : "VEC3", "max" : [1.0000040531158447, 1.0000044107437134, 1.0000040531158447], "min" : [-1.0000040531158447, -1.0000044107437134, -1.0000040531158447], "name" : "NORMAL"}, {"bufferView" : 0, "byteOffset" : 130344, "componentType" : 5123, "count" : 60, "type" : "SCALAR", "max" : [49], "min" : [0]}, {"bufferView" : 6, "byteOffset" : 0, "componentType" : 5126, "count" : 50, "type" : "VEC3", "max" : [10.053401947021484, -42.00362777709961, -6.517396926879883], "min" : [8.184938430786133, -45.198204040527344, -10.317694664001465], "name" : "POSITION"}, {"bufferView" : 6, "byteOffset" : 12, "componentType" : 5126, "count" : 50, "type" : "VEC2", "max" : [0.875, -0], "min" : [0.125, -1], "name" : "TEXCOORD_0"}, {"bufferView" : 6, "byteOffset" : 20, "componentType" : 5126, "count" : 50, "type" : "VEC3", "max" : [1.0000044107437134, 0.9577454924583435, 0.8124902248382568], "min" : [-1.0000044107437134, -0.8124902248382568, -0.8151772022247314], "name" : "NORMAL"}, {"bufferView" : 0, "byteOffset" : 130464, "componentType" : 5123, "count" : 60, "type" : "SCALAR", "max" : [49], "min" : [0]}, {"bufferView" : 7, "byteOffset" : 0, "componentType" : 5126, "count" : 50, "type" : "VEC3", "max" : [7.601296901702881, -42.00362777709961, -6.517396926879883], "min" : [5.732832908630371, -45.198204040527344, -10.317694664001465], "name" : "POSITION"}, {"bufferView" : 7, "byteOffset" : 12, "componentType" : 5126, "count" : 50, "type" : "VEC2", "max" : [0.875, -0], "min" : [0.125, -1], "name" : "TEXCOORD_0"}, {"bufferView" : 7, "byteOffset" : 20, "componentType" : 5126, "count" : 50, "type" : "VEC3", "max" : [1.0000044107437134, 0.9577454924583435, 0.8124902248382568], "min" : [-1.0000044107437134, -0.8124902248382568, -0.8151772022247314], "name" : "NORMAL"}, {"bufferView" : 0, "byteOffset" : 130584, "componentType" : 5123, "count" : 60, "type" : "SCALAR", "max" : [49], "min" : [0]}, {"bufferView" : 8, "byteOffset" : 0, "componentType" : 5126, "count" : 50, "type" : "VEC3", "max" : [5.149191856384277, -42.00362777709961, -6.517396926879883], "min" : [3.2807281017303467, -45.198204040527344, -10.317694664001465], "name" : "POSITION"}, {"bufferView" : 8, "byteOffset" : 12, "componentType" : 5126, "count" : 50, "type" : "VEC2", "max" : [0.875, -0], "min" : [0.125, -1], "name" : "TEXCOORD_0"}, {"bufferView" : 8, "byteOffset" : 20, "componentType" : 5126, "count" : 50, "type" : "VEC3", "max" : [1.0000044107437134, 0.9577454924583435, 0.8124902248382568], "min" : [-1.0000044107437134, -0.8124902248382568, -0.8151772022247314], "name" : "NORMAL"}, {"bufferView" : 0, "byteOffset" : 130704, "componentType" : 5123, "count" : 600, "type" : "SCALAR", "max" : [497], "min" : [0]}, {"bufferView" : 9, "byteOffset" : 0, "componentType" : 5126, "count" : 498, "type" : "VEC3", "max" : [97.33089447021484, -47.53989028930664, 97.33089447021484], "min" : [-97.33089447021484, -47.53989028930664, -97.33089447021484], "name" : "POSITION"}, {"bufferView" : 9, "byteOffset" : 12, "componentType" : 5126, "count" : 498, "type" : "VEC2", "max" : [1, -0], "min" : [0, -1], "name" : "TEXCOORD_0"}, {"bufferView" : 9, "byteOffset" : 20, "componentType" : 5126, "count" : 498, "type" : "VEC3", "max" : [0, 1.0000044107437134, 0], "min" : [0, 1.0000044107437134, 0], "name" : "NORMAL"}, {"bufferView" : 0, "byteOffset" : 131904, "componentType" : 5123, "count" : 816, "type" : "SCALAR", "max" : [675], "min" : [0]}, {"bufferView" : 10, "byteOffset" : 0, "componentType" : 5126, "count" : 676, "type" : "VEC3", "max" : [23.338171005249023, 24.04918098449707, 0.02002199925482273], "min" : [-23.622201919555664, -22.910430908203125, -0.926406979560852], "name" : "POSITION"}, {"bufferView" : 10, "byteOffset" : 12, "componentType" : 5126, "count" : 676, "type" : "VEC2", "max" : [0.7913389801979065, -0], "min" : [0, -1], "name" : "TEXCOORD_0"}, {"bufferView" : 10, "byteOffset" : 20, "componentType" : 5126, "count" : 676, "type" : "VEC3", "max" : [0.999973475933075, 0.9999738335609436, 1.0000040531158447], "min" : [-0.999973475933075, -0.9999738335609436, -1.0000040531158447], "name" : "NORMAL"}], "asset" : {"generator" : "Aspose.3D 23.6.0", "version" : "2.0"}, "buffers" : [{"uri" : "data:application/octet-stream;base64,", "byteLength" : 2270156}], "bufferViews" : [{"buffer" : 0, "byteOffset" : 0, "byteLength" : 133536, "target" : 34963}, {"buffer" : 0, "byteOffset" : 133540, "byteLength" : 19200, "byteStride" : 32, "target" : 34962}, {"buffer" : 0, "byteOffset" : 152744, "byteLength" : 19200, "byteStride" : 32, "target" : 34962}, {"buffer" : 0, "byteOffset" : 171948, "byteLength" : 10368, "byteStride" : 32, "target" : 34962}, {"buffer" : 0, "byteOffset" : 182320, "byteLength" : 1920, "byteStride" : 32, "target" : 34962}, {"buffer" : 0, "byteOffset" : 184244, "byteLength" : 2034816, "byteStride" : 32, "target" : 34962}, {"buffer" : 0, "byteOffset" : 2219064, "byteLength" : 1920, "byteStride" : 32, "target" : 34962}, {"buffer" : 0, "byteOffset" : 2220988, "byteLength" : 1920, "byteStride" : 32, "target" : 34962}, {"buffer" : 0, "byteOffset" : 2222912, "byteLength" : 1920, "byteStride" : 32, "target" : 34962}, {"buffer" : 0, "byteOffset" : 2224836, "byteLength" : 19200, "byteStride" : 32, "target" : 34962}, {"buffer" : 0, "byteOffset" : 2244040, "byteLength" : 26112, "byteStride" : 32, "target" : 34962}], "meshes" : [{"primitives" : [{"attributes" : {"POSITION" : 1, "TEXCOORD_0" : 2, "NORMAL" : 3}, "indices" : 0, "mode" : 4}], "name" : ""}, {"primitives" : [{"attributes" : {"POSITION" : 5, "TEXCOORD_0" : 6, "NORMAL" : 7}, "indices" : 4, "mode" : 4}], "name" : ""}, {"primitives" : [{"attributes" : {"POSITION" : 9, "TEXCOORD_0" : 10, "NORMAL" : 11}, "indices" : 8, "mode" : 4}], "name" : ""}, {"primitives" : [{"attributes" : {"POSITION" : 13, "TEXCOORD_0" : 14, "NORMAL" : 15}, "indices" : 12, "mode" : 4}], "name" : ""}, {"primitives" : [{"attributes" : {"POSITION" : 17, "TEXCOORD_0" : 18, "NORMAL" : 19}, "indices" : 16, "mode" : 4}], "name" : ""}, {"primitives" : [{"attributes" : {"POSITION" : 21, "TEXCOORD_0" : 22, "NORMAL" : 23}, "indices" : 20, "mode" : 4}], "name" : ""}, {"primitives" : [{"attributes" : {"POSITION" : 25, "TEXCOORD_0" : 26, "NORMAL" : 27}, "indices" : 24, "mode" : 4}], "name" : ""}, {"primitives" : [{"attributes" : {"POSITION" : 29, "TEXCOORD_0" : 30, "NORMAL" : 31}, "indices" : 28, "mode" : 4}], "name" : ""}, {"primitives" : [{"attributes" : {"POSITION" : 33, "TEXCOORD_0" : 34, "NORMAL" : 35}, "indices" : 32, "mode" : 4}], "name" : ""}, {"primitives" : [{"attributes" : {"POSITION" : 37, "TEXCOORD_0" : 38, "NORMAL" : 39}, "indices" : 36, "mode" : 4}], "name" : ""}], "nodes" : [{"mesh" : 0, "name" : "pPlane1"}, {"mesh" : 1, "name" : "pCylinder2"}, {"mesh" : 2, "name" : "pCube1"}, {"mesh" : 3, "name" : "pCube3"}, {"mesh" : 4, "name" : "pCylinder3"}, {"mesh" : 5, "name" : "pCube4"}, {"mesh" : 6, "name" : "pCube5"}, {"mesh" : 7, "name" : "pCube6"}, {"mesh" : 8, "name" : "pPlane2"}, {"mesh" : 9, "name" : "pCylinder3 group6"}], "scene" : 0, "scenes" : [{"nodes" : [0, 1, 2, 3, 4, 5, 6, 7, 8, 9]}]}